<svg id="Flat" height="512" viewBox="0 0 512 512" width="512" xmlns="http://www.w3.org/2000/svg"><rect fill="#e9eef2" height="368" rx="32" width="464" x="16" y="80"/><path d="m48 80h400a32 32 0 0 1 32 32v32a0 0 0 0 1 0 0h-464a0 0 0 0 1 0 0v-32a32 32 0 0 1 32-32z" fill="#eb423f"/><rect fill="#e9eef2" height="64" rx="16" width="32" x="72" y="48"/><rect fill="#e9eef2" height="64" rx="16" width="32" x="152" y="48"/><rect fill="#e9eef2" height="64" rx="16" width="32" x="232" y="48"/><rect fill="#e9eef2" height="64" rx="16" width="32" x="312" y="48"/><rect fill="#e9eef2" height="64" rx="16" width="32" x="392" y="48"/><g fill="#d0d2d4"><path d="m64 192h48v48h-48z"/><path d="m144 192h48v48h-48z"/><path d="m224 192h48v48h-48z"/><path d="m304 192h48v48h-48z"/><path d="m384 192h48v48h-48z"/><path d="m64 272h48v48h-48z"/><path d="m144 272h48v48h-48z"/><path d="m224 272h48v48h-48z"/><path d="m304 272h48v48h-48z"/><path d="m384 272h48v48h-48z"/><path d="m64 352h48v48h-48z"/><path d="m144 352h48v48h-48z"/><path d="m224 352h48v48h-48z"/><path d="m304 352h48v48h-48z"/><path d="m384 352h48v48h-48z"/></g><circle cx="424" cy="392" fill="#88c791" r="72"/><path d="m448 384h-16v-16a8 8 0 0 0 -16 0v16h-16a8 8 0 0 0 0 16h16v16a8 8 0 0 0 16 0v-16h16a8 8 0 0 0 0-16z" fill="#e9eef2"/></svg>