<svg id="Layer_1" enable-background="new 0 0 512 512" height="512" viewBox="0 0 512 512" width="512" xmlns="http://www.w3.org/2000/svg"><g><g><g><path d="m209.382 281.339c-1.581 1.99-3.969 3.139-6.5 3.139h-154.764c-2.531 0-4.919-1.15-6.5-3.139-1.57-1.979-2.145-4.565-1.57-7.03 3.803-16.315 3.117-31.293 2.509-44.514-.84-18.316-1.57-34.134 9.883-46.138 10.502-10.988 29.328-16.293 62.005-17.222 3.515-.099 7.208-.144 11.055-.144 39.575 0 61.43 5.195 73.059 17.365 11.452 12.004 10.723 27.822 9.883 46.138-.608 13.22-1.293 28.198 2.509 44.514.575 2.466 0 5.052-1.569 7.031z" fill="#64bfed"/><g fill="#00aae8"><path d="m210.951 274.309c.575 2.465 0 5.052-1.57 7.03-1.581 1.99-3.969 3.139-6.5 3.139h-22.109c2.532 0 4.919-1.15 6.5-3.139 1.57-1.979 2.145-4.565 1.57-7.03-3.803-16.315-3.117-31.293-2.509-44.514.84-18.316 1.57-34.134-9.883-46.138-10.502-10.988-29.328-16.293-62.005-17.222 3.515-.099 7.208-.144 11.055-.144 39.575 0 61.43 5.195 73.059 17.365 11.452 12.004 10.723 27.822 9.883 46.138-.608 13.222-1.293 28.199 2.509 44.515z"/><g><path d="m83.707 222.068c-4.113.484-7.055 4.212-6.57 8.326.03.256 2.952 25.884-3.385 43.859-1.377 3.906.673 8.19 4.58 9.567.825.291 1.666.429 2.494.429 3.092 0 5.987-1.927 7.073-5.008 7.482-21.223 4.275-49.413 4.135-50.603-.485-4.113-4.215-7.053-8.327-6.57z"/><path d="m177.248 274.254c-6.285-17.826-3.439-43.384-3.385-43.859.485-4.114-2.457-7.841-6.57-8.326-4.118-.486-7.841 2.457-8.326 6.57-.141 1.19-3.348 29.379 4.135 50.603 1.086 3.082 3.981 5.008 7.073 5.008.828 0 1.669-.138 2.494-.429 3.906-1.378 5.956-5.661 4.579-9.567z"/></g></g></g><path d="m164.167 118.744c-.665-3.548-3.762-6.12-7.372-6.12l-62.591.001c-3.61 0-6.708 2.572-7.372 6.12-2.856 15.256-3.86 36.333 7.576 50.109 7.033 8.472 17.494 12.768 31.092 12.768s24.059-4.296 31.092-12.768c11.436-13.776 10.431-34.854 7.575-50.11z" fill="#ffddce"/><path d="m165.516 68.81c-11.764-9.126-28.056-10.888-40.016-4.872-11.959-6.014-28.252-4.255-40.017 4.872-15.062 11.685-18.437 31.98-9.025 54.29 1.032 2.448 3.283 4.167 5.916 4.519 1.114.15 24.951 3.108 43.125-12.51 12.96 11.137 28.796 12.828 37.223 12.827 3.391 0 5.583-.274 5.903-.317 2.633-.352 4.884-2.071 5.916-4.519 9.412-22.31 6.038-42.605-9.025-54.29z" fill="#d79787"/></g><g><path d="m470.382 281.339c-1.581 1.99-3.969 3.139-6.5 3.139h-154.764c-2.531 0-4.919-1.15-6.5-3.139-1.57-1.979-2.145-4.565-1.57-7.03 3.803-16.315 3.117-31.293 2.509-44.514-.84-18.316-1.57-34.134 9.883-46.138 10.502-10.988 29.328-16.293 62.005-17.222 3.515-.099 7.208-.144 11.055-.144 39.575 0 61.43 5.195 73.059 17.365 11.452 12.004 10.723 27.822 9.883 46.138-.608 13.22-1.293 28.198 2.509 44.514.575 2.466 0 5.052-1.569 7.031z" fill="#ffc373"/><path d="m471.951 274.309c.575 2.465 0 5.052-1.57 7.03-1.581 1.99-3.969 3.139-6.5 3.139h-22.109c2.532 0 4.919-1.15 6.5-3.139 1.57-1.979 2.145-4.565 1.57-7.03-3.803-16.315-3.117-31.293-2.509-44.514.84-18.316 1.57-34.134-9.883-46.138-10.502-10.988-29.328-16.293-62.005-17.222 3.515-.099 7.208-.144 11.055-.144 39.575 0 61.43 5.195 73.059 17.365 11.452 12.004 10.723 27.822 9.883 46.138-.608 13.222-1.293 28.199 2.509 44.515z" fill="#ff9e00"/><g><g><g><path d="m344.707 222.068c-4.113.484-7.055 4.212-6.57 8.326.03.256 2.952 25.884-3.385 43.859-1.377 3.906.673 8.19 4.58 9.567.825.291 1.666.429 2.494.429 3.092 0 5.987-1.927 7.073-5.008 7.482-21.223 4.275-49.413 4.135-50.603-.485-4.113-4.215-7.053-8.327-6.57z" fill="#ff9e00"/></g><g><path d="m438.248 274.254c-6.285-17.826-3.439-43.384-3.385-43.859.485-4.114-2.457-7.841-6.57-8.326-4.118-.486-7.841 2.457-8.326 6.57-.141 1.19-3.348 29.379 4.135 50.603 1.086 3.082 3.981 5.008 7.073 5.008.828 0 1.669-.138 2.494-.429 3.906-1.378 5.956-5.661 4.579-9.567z" fill="#ff9e00"/></g></g></g></g><path d="m425.167 118.744c-.665-3.548-3.762-6.12-7.372-6.12l-62.591.001c-3.61 0-6.708 2.572-7.372 6.12-2.856 15.256-3.86 36.333 7.576 50.109 7.033 8.472 17.494 12.768 31.092 12.768s24.059-4.296 31.092-12.768c11.436-13.776 10.431-34.854 7.575-50.11z" fill="#d58678"/><path d="m412.394 70.032c-26.072-19.797-67.77-6.634-69.531-6.065-1.885.61-3.453 1.941-4.36 3.703-.587 1.141-14.219 28.167.305 47.771 8.656 11.683 24.387 17.484 47.704 17.484 11.277 0 24.333-1.358 39.212-4.065 3.453-.628 6.008-3.566 6.151-7.072.975-23.787-5.58-41.2-19.481-51.756z" fill="#918291"/><g fill="#918291"><path d="m68 460.568c-4.142 0-7.5 3.358-7.5 7.5v36.432c0 4.142 3.358 7.5 7.5 7.5s7.5-3.358 7.5-7.5v-36.432c0-4.142-3.358-7.5-7.5-7.5z"/><path d="m444 460.568c-4.142 0-7.5 3.358-7.5 7.5v36.432c0 4.142 3.358 7.5 7.5 7.5s7.5-3.358 7.5-7.5v-36.432c0-4.142-3.358-7.5-7.5-7.5z"/></g><path d="m488.5 391.56c0 35.3-2.2 69.17-2.22 69.51-.21 3.16-2.38 5.84-5.42 6.72-.91.26-8.17 2.29-21.9 5.02-31.96 6.33-99.03 16.37-202.96 16.37-148.57 0-221.82-20.52-224.86-21.39-3.04-.88-5.21-3.56-5.42-6.72-.02-.34-2.22-34.21-2.22-69.51 0-35.29 2.2-69.16 2.22-69.5.26-3.94 3.53-7.01 7.49-7.01h445.58c3.96 0 7.23 3.07 7.49 7.01.02.34 2.22 34.21 2.22 69.5z" fill="#d79787"/><path d="m488.5 391.56c0 35.3-2.2 69.17-2.22 69.51-.21 3.16-2.38 5.84-5.42 6.72-.91.26-8.17 2.29-21.9 5.02 4.45-66.18 1.58-133.07.22-157.76h19.61c3.96 0 7.23 3.07 7.49 7.01.02.34 2.22 34.21 2.22 69.5z" fill="#c4715a"/><path d="m512 301.83c0 10.68-2.57 20.63-2.68 21.05-.81 3.1-3.51 5.35-6.72 5.58-.22.02-6.36.45-18.41 1.07-32.71 1.7-108.93 4.8-228.19 4.8-163.19 0-245.79-5.81-246.6-5.87-3.21-.23-5.91-2.48-6.72-5.58-.11-.42-2.68-10.37-2.68-21.05s2.57-20.62 2.68-21.04c.81-3.11 3.51-5.35 6.72-5.58.81-.06 83.41-5.88 246.6-5.88 118.9 0 195.02 3.09 227.89 4.79 12.25.63 18.49 1.07 18.71 1.09 3.21.23 5.91 2.47 6.72 5.58.11.42 2.68 10.36 2.68 21.04z" fill="#918291"/><path d="m301.685 54.069c-19.769-29.108-39.311-50.707-40.133-51.612-1.422-1.564-3.438-2.457-5.552-2.457s-4.13.893-5.552 2.457c-.822.905-20.364 22.504-40.133 51.613-1.17 1.724-1.571 3.856-1.106 5.888.465 2.031 1.754 3.777 3.558 4.819.791.458 6.851 3.81 16.886 5.367-.776 15.363-2.276 53.217-.848 95.11.12 3.528 2.685 6.495 6.158 7.125.318.058 7.949 1.413 21.036 1.413s20.718-1.355 21.036-1.413c3.474-.629 6.038-3.596 6.158-7.125 1.428-41.893-.071-79.747-.848-95.11 10.035-1.557 16.094-4.91 16.885-5.367 1.804-1.042 3.094-2.789 3.559-4.82.467-2.031.066-4.164-1.104-5.888z" fill="#90ea8f"/><g fill="#c4715a"><circle cx="68" cy="363.446" r="7.5"/><circle cx="68" cy="437.446" r="7.5"/><circle cx="444" cy="363.453" r="7.5"/><circle cx="444" cy="437.453" r="7.5"/></g><path d="m512 301.83c0 10.68-2.57 20.63-2.68 21.05-.81 3.1-3.51 5.35-6.72 5.58-.22.02-6.36.45-18.41 1.07 3.86-24.41.98-47.32-.3-55.41 12.25.63 18.49 1.07 18.71 1.09 3.21.23 5.91 2.47 6.72 5.58.11.42 2.68 10.36 2.68 21.04z" fill="#685e68"/></g></svg>