<svg id="Capa_1" enable-background="new 0 0 497 497" height="512" viewBox="0 0 497 497" width="512" xmlns="http://www.w3.org/2000/svg"><g><path d="m460.525 329.342c-2.866-2.981-7.609-3.072-10.598-.216-.146.141-15.081 14.224-47.186 28.13-29.693 12.861-80.556 28.192-154.241 28.192s-124.548-15.331-154.241-28.192c-32.105-13.906-47.04-27.99-47.186-28.13-2.979-2.864-7.716-2.779-10.591.194-2.879 2.978-2.798 7.726.18 10.605.656.634 16.472 15.714 50.696 30.687 31.113 13.611 84.326 29.836 161.143 29.836s130.029-16.225 161.143-29.836c34.225-14.973 50.04-30.052 50.696-30.687 2.97-2.874 3.051-7.603.185-10.583z" fill="#e5646e"/><path d="m20.998 268.858h23.11v213.69h-23.11z" fill="#6f6571"/><path d="m38.107 268.858h12v213.69h-12z" fill="#5d5360"/><path d="m446.893 268.858h23.297v213.69h-23.297z" fill="#6f6571"/><path d="m388.551 229.899h-299.23c-5.282 0-9.564-4.282-9.564-9.564v-204.762c0-5.282 4.282-9.564 9.564-9.564h299.23c5.282 0 9.564 4.282 9.564 9.564v204.763c0 5.281-4.282 9.563-9.564 9.563z" fill="#eef5f6"/><path d="m407.679 6.009h-28.692c5.282 0 9.564 4.282 9.564 9.564v204.763c0 5.282-4.282 9.564-9.564 9.564h28.692c5.282 0 9.564-4.282 9.564-9.564v-204.763c0-5.282-4.282-9.564-9.564-9.564z" fill="#deecf1"/><circle cx="225.484" cy="62.769" fill="#ffe07d" r="17.265"/><path d="m159.179 184.906 45.867-79.443c1.411-2.443 4.937-2.443 6.348 0l37.34 64.675-34.418 20.265h-51.963c-2.822 0-4.585-3.054-3.174-5.497z" fill="#aee4a4"/><path d="m211.142 184.906 60.166-104.21c1.411-2.443 4.937-2.443 6.348 0l60.166 104.21c1.411 2.443-.353 5.498-3.174 5.498h-120.332c-2.822-.001-4.585-3.055-3.174-5.498z" fill="#8dd5a7"/><path d="m49.771 461.794h-41.328c-4.663 0-8.443 3.78-8.443 8.443v16.532c0 2.332 1.89 4.222 4.222 4.222h49.771c2.332 0 4.222-1.89 4.222-4.222v-16.532c-.001-4.662-3.781-8.443-8.444-8.443z" fill="#ffe07d"/><path d="m59.482 268.858c0 14.311-9.618 24.921-23.929 24.921-2.951 0-5.788.498-8.431-.411-10.173-3.498-17.482-13.15-17.482-24.51 0-11.359 7.309-21.012 17.482-24.51 2.643-.909 5.479.581 8.431.581 14.31 0 23.929 9.618 23.929 23.929z" fill="#ffe07d"/><path d="m35.553 242.946c-2.952 0-5.785.5-8.428 1.41 10.172 3.498 17.484 13.144 17.484 24.503s-7.312 21.005-17.484 24.503c2.643.909 5.477 1.41 8.428 1.41 14.311 0 25.912-11.601 25.912-25.913s-11.602-25.913-25.912-25.913z" fill="#ffd064"/><path d="m62.662 461.794h-19.832c4.663 0 8.443 3.78 8.443 8.443v16.532c0 2.332-1.89 4.222-4.222 4.222h19.832c2.331 0 4.222-1.89 4.222-4.222v-16.532c0-4.662-3.78-8.443-8.443-8.443z" fill="#ffd064"/><g><path d="m51.549 321.493c0-2.429-1.969-4.397-4.397-4.397h-5.518-31.683c-4.072 0-7.623 3.138-7.745 7.208-.126 4.212 3.25 7.666 7.433 7.666h31.994 5.518c2.429 0 4.397-1.969 4.397-4.397v-6.08z" fill="#ffe07d"/></g><path d="m61.465 317.095h-19.831c4.108 0 7.437 3.33 7.437 7.437s-3.329 7.437-7.437 7.437h19.832c4.108 0 7.437-3.33 7.437-7.437-.001-4.107-3.33-7.437-7.438-7.437z" fill="#ffd064"/><path d="m464.002 268.858h12v213.69h-12z" fill="#5d5360"/><path d="m475.666 461.794h-41.328c-4.663 0-8.443 3.78-8.443 8.443v16.532c0 2.332 1.89 4.222 4.222 4.222h49.771c2.332 0 4.222-1.89 4.222-4.222v-16.532c0-4.662-3.781-8.443-8.444-8.443z" fill="#ffe07d"/><path d="m485.377 268.858c0 14.311-9.618 24.921-23.929 24.921-2.952 0-5.788.498-8.431-.411-10.172-3.498-17.482-13.151-17.482-24.51s7.31-21.012 17.482-24.51c2.643-.909 5.479.581 8.431.581 14.311 0 23.929 9.618 23.929 23.929z" fill="#ffe07d"/><path d="m461.448 242.946c-2.952 0-5.785.5-8.428 1.41 10.172 3.498 17.484 13.144 17.484 24.503s-7.312 21.005-17.484 24.503c2.643.909 5.477 1.41 8.428 1.41 14.311 0 25.912-11.601 25.912-25.913s-11.601-25.913-25.912-25.913z" fill="#ffd064"/><path d="m488.557 461.794h-19.831c4.663 0 8.443 3.78 8.443 8.443v16.532c0 2.332-1.89 4.222-4.221 4.222h19.831c2.331 0 4.222-1.89 4.222-4.222v-16.532c-.001-4.662-3.781-8.443-8.444-8.443z" fill="#ffd064"/><g><path d="m477.444 321.493c0-2.429-1.969-4.397-4.397-4.397h-5.518-31.682c-4.072 0-7.623 3.138-7.745 7.208-.127 4.212 3.25 7.666 7.433 7.666h31.994 5.518c2.429 0 4.397-1.969 4.397-4.397z" fill="#ffe07d"/></g><path d="m487.36 317.095h-19.831c4.108 0 7.437 3.33 7.437 7.437s-3.329 7.437-7.437 7.437h19.831c4.108 0 7.437-3.33 7.437-7.437s-3.329-7.437-7.437-7.437z" fill="#ffd064"/></g></svg>