<svg height="512" viewBox="0 0 512 512" width="512" xmlns="http://www.w3.org/2000/svg"><g id="flat"><path d="m72 328h272v160h-272z" fill="#ea2b2d"/><path d="m72 328h272v8h-272z" fill="#cb2527"/><path d="m64 264h288v64h-288z" fill="#ea2b2d"/><path d="m352.75 191.696h48v288h-48z" fill="#ea2b2d" transform="matrix(.855 -.519 .519 .855 -119.512 244.281)"/><path d="m326.559 212.456h32v288h-32z" fill="#cb2527" transform="matrix(.855 -.519 .519 .855 -135.251 229.551)"/><g fill="#d78e0c"><path d="m176 304h-64a8 8 0 0 1 0-16h64c4.418 0 0 3.582 0 8s4.418 8 0 8z"/><path d="m176 336h-56a8 8 0 0 1 0-16h56c4.418 0 0 3.582 0 8s4.418 8 0 8z"/><path d="m176 368h-56a8 8 0 0 1 0-16h56c4.418 0 0 3.582 0 8s4.418 8 0 8z"/><path d="m176 400h-56a8 8 0 0 1 0-16h56c4.418 0 0 3.582 0 8s4.418 8 0 8z"/><path d="m176 432h-56a8 8 0 0 1 0-16h56c4.418 0 0 3.582 0 8s4.418 8 0 8z"/><path d="m176 464h-56a8 8 0 0 1 0-16h56c4.418 0 0 3.582 0 8s4.418 8 0 8z"/></g><path d="m206.745 29.126 28.23 60.024 65.81 8.3-48.363 45.396 12.443 65.154-58.12-31.968-58.12 31.968 12.443-65.154-48.363-45.396 65.81-8.3z" fill="#eeb436"/><path d="m208 208a8 8 0 0 0 -8 8v24a8 8 0 0 0 16 0v-24a8 8 0 0 0 -8-8z" fill="#eeb436"/><path d="m317.569 181.072-20.785-12a8 8 0 1 0 -8 13.856l20.785 12a8 8 0 1 0 8-13.856z" fill="#eeb436"/><path d="m291.923 74.928 20.785-12a8 8 0 1 0 -8-13.856l-20.785 12a8 8 0 1 0 8 13.856z" fill="#eeb436"/><path d="m125.646 61.072-20.785-12a8 8 0 0 0 -8 13.856l20.785 12a8 8 0 1 0 8-13.856z" fill="#eeb436"/><path d="m112.784 169.072-20.784 12a8 8 0 1 0 8 13.856l20.784-12a8 8 0 0 0 -8-13.856z" fill="#eeb436"/><path d="m112 296h64v8h-64z" fill="#c7830b"/><path d="m112 328h64v8h-64z" fill="#c7830b"/><path d="m112 360h64v8h-64z" fill="#c7830b"/><path d="m112 392h64v8h-64z" fill="#c7830b"/><path d="m112 424h64v8h-64z" fill="#c7830b"/><path d="m112 456h64v8h-64z" fill="#c7830b"/><path d="m112 496a8 8 0 0 1 -8-8v-240a8 8 0 0 1 16 0v240a8 8 0 0 1 -8 8z" fill="#d78e0c"/><path d="m176 496a8 8 0 0 1 -8-8v-240a8 8 0 0 1 16 0v240a8 8 0 0 1 -8 8z" fill="#d78e0c"/></g></svg>